<svg version="1.1" id="Layer_1" xmlns="http://www.w3.org/2000/svg" xmlns:xlink="http://www.w3.org/1999/xlink" x="0px" y="0px"
	 width="100%" viewBox="0 0 800 787" enable-background="new 0 0 800 787" xml:space="preserve">
<path fill="#fff" opacity="1.000000" stroke="none" 
	d="
M0.999999,614.000000 
	C1.000000,409.751343 1.000000,205.502701 1.000000,1.000000 
	C138.691467,1.000000 276.383087,1.000000 414.546814,1.368033 
	C414.431488,2.472989 413.995697,3.480865 413.234283,3.907119 
	C395.390839,13.896502 377.514191,23.826603 359.639465,33.760067 
	C342.621979,43.217144 325.584595,52.638554 308.583405,62.124866 
	C287.832214,73.703621 267.135040,85.379318 246.367264,96.928146 
	C227.498688,107.420860 208.524673,117.724319 189.672806,128.246750 
	C162.674164,143.316452 135.777023,158.568069 108.773979,173.629852 
	C89.776016,184.226532 70.631081,194.560181 51.661797,205.207291 
	C48.599613,206.926041 44.388046,209.243332 43.701954,212.022995 
	C42.043354,218.742706 40.804222,225.754135 44.250282,232.802490 
	C48.320061,241.126556 51.898857,249.757050 54.879482,258.530212 
	C58.489403,269.155640 65.203606,273.866058 75.862144,272.416382 
	C75.970116,353.197510 75.994865,433.513214 75.550339,513.884888 
	C58.832542,513.940918 42.584023,513.940918 26.000034,513.940918 
	C26.000034,516.495728 26.000034,518.302734 26.000032,520.109680 
	C26.000017,549.252075 26.018745,578.394531 25.956026,607.536743 
	C25.952024,609.395935 25.316483,611.253784 24.554459,613.090332 
	C16.422789,613.378967 8.711393,613.689453 0.999999,614.000000 
M74.000000,416.500000 
	C74.000000,448.246490 74.000000,479.993011 74.000000,512.216553 
	C57.827812,512.216553 42.444729,512.216553 27.061647,512.216553 
	C27.067389,512.343628 27.073130,512.470642 27.078871,512.597717 
	C42.969341,512.597717 58.859810,512.597717 74.649925,512.597717 
	C74.649925,432.821381 74.649925,353.447815 74.649925,274.074249 
	C74.433281,274.074493 74.216644,274.074707 74.000000,274.074921 
	C74.000000,321.216614 74.000000,368.358307 74.000000,416.500000 
z"/>
<path fill="#F9EEE0" opacity="1.000000" stroke="none" 
	d="
M75.778923,271.950928 
	C65.203606,273.866058 58.489403,269.155640 54.879482,258.530212 
	C51.898857,249.757050 48.320061,241.126556 44.250282,232.802490 
	C40.804222,225.754135 42.043354,218.742706 43.701954,212.022995 
	C44.388046,209.243332 48.599613,206.926041 51.661797,205.207291 
	C70.631081,194.560181 89.776016,184.226532 108.773979,173.629852 
	C135.777023,158.568069 162.674164,143.316452 189.672806,128.246750 
	C208.524673,117.724319 227.498688,107.420860 246.367264,96.928146 
	C267.135040,85.379318 287.832214,73.703621 308.583405,62.124866 
	C325.584595,52.638554 342.621979,43.217144 359.639465,33.760067 
	C377.514191,23.826603 395.390839,13.896502 413.234283,3.907119 
	C413.995697,3.480865 414.431488,2.472989 415.009460,1.368033 
	C418.361298,1.000000 421.722565,1.000000 425.662170,1.336356 
	C446.030975,12.548668 465.864929,23.346386 485.600952,34.320236 
	C510.744751,48.300976 535.806335,62.429520 560.909119,76.484138 
	C577.329895,85.677841 593.757812,94.858528 610.187866,104.035645 
	C625.617432,112.653946 640.994690,121.368500 656.504333,129.840393 
	C671.681946,138.130844 687.073975,146.029922 702.222351,154.372238 
	C710.472778,158.915833 718.308899,164.208405 726.526489,168.816086 
	C732.745850,172.303360 739.427979,174.968079 745.631653,178.480133 
	C758.633728,185.840836 771.284851,193.835587 784.421997,200.937576 
	C791.341370,204.678162 797.755127,208.453278 801.000000,216.000000 
	C801.000000,220.024551 801.000000,224.049088 800.656616,228.665390 
	C795.771606,240.417084 791.156738,251.547943 786.714355,262.747253 
	C783.770020,270.170044 775.640259,274.902130 767.755127,271.911804 
	C767.055298,271.435547 766.661316,271.122559 766.227722,270.880615 
	C695.885925,231.624542 625.538269,192.378998 555.197876,153.120361 
	C513.630981,129.920883 472.053650,106.740089 430.540314,83.445175 
	C424.788696,80.217682 419.339722,79.721832 413.561646,83.078682 
	C408.383057,86.087265 403.111786,88.936378 397.880371,91.854019 
	C305.514832,143.367676 213.140411,194.865494 120.792137,246.410126 
	C105.728653,254.817871 90.780418,263.432129 75.778923,271.950928 
z"/>
<path fill="#fff" opacity="1.000000" stroke="none" 
	d="
M801.000000,215.531342 
	C797.755127,208.453278 791.341370,204.678162 784.421997,200.937576 
	C771.284851,193.835587 758.633728,185.840836 745.631653,178.480133 
	C739.427979,174.968079 732.745850,172.303360 726.526489,168.816086 
	C718.308899,164.208405 710.472778,158.915833 702.222351,154.372238 
	C687.073975,146.029922 671.681946,138.130844 656.504333,129.840393 
	C640.994690,121.368500 625.617432,112.653946 610.187866,104.035645 
	C593.757812,94.858528 577.329895,85.677841 560.909119,76.484138 
	C535.806335,62.429520 510.744751,48.300976 485.600952,34.320236 
	C465.864929,23.346386 446.030975,12.548668 426.120239,1.336356 
	C550.907227,1.000000 675.814514,1.000000 801.000000,1.000000 
	C801.000000,72.353989 801.000000,143.708328 801.000000,215.531342 
z"/>
<path fill="#EAAE86" opacity="1.000000" stroke="none" 
	d="
M0.999999,614.468628 
	C8.711393,613.689453 16.422789,613.378967 24.883244,613.348145 
	C27.603834,613.750671 29.574884,613.971436 31.546978,613.981201 
	C48.432243,614.064636 65.317703,614.109802 82.179855,614.621704 
	C82.156616,631.809448 82.156616,648.541870 82.156616,665.861450 
	C90.241249,663.481689 97.643723,661.158325 105.139282,659.189270 
	C107.236107,658.638489 109.723763,658.683350 111.831589,659.229248 
	C118.996086,661.084717 126.070930,663.286438 133.949921,665.580017 
	C133.949921,647.809448 133.949921,630.923218 134.421600,614.026001 
	C150.249146,613.998657 165.605026,613.982300 181.433746,613.976440 
	C193.263870,613.991272 204.621124,613.995605 215.974625,614.468628 
	C215.991730,672.236755 216.012604,729.536255 215.569809,786.897949 
	C143.737442,786.973511 72.368721,786.986755 1.000000,787.000000 
	C1.000000,729.645752 1.000000,672.291565 0.999999,614.468628 
M181.493790,737.018372 
	C178.793701,736.012390 176.114395,734.208679 173.389954,734.137695 
	C161.248169,733.821228 149.093430,733.982300 136.943436,734.007385 
	C130.799026,734.020081 126.668091,737.557983 126.039238,743.245911 
	C125.429039,748.765137 128.381409,753.523987 134.670502,753.919800 
	C147.897217,754.752502 161.251221,755.301453 174.443115,754.385254 
	C184.535233,753.684265 187.018692,746.084717 181.493790,737.018372 
z"/>
<path fill="#F9CAAA" opacity="1.000000" stroke="none" 
	d="
M705.000000,788.000000 
	C656.645752,788.000000 608.291565,788.000000 559.468872,787.531372 
	C558.953308,771.983826 558.906067,756.905029 558.897583,741.378601 
	C558.833984,736.572205 558.731750,732.213440 558.676025,727.394226 
	C558.735596,700.159668 558.795044,673.385437 558.739136,646.611450 
	C558.716248,635.643738 558.444397,624.676514 558.628967,613.516052 
	C577.366211,613.270630 595.760193,613.218323 614.148499,613.621826 
	C614.142761,630.958191 614.142761,647.838806 614.142761,665.625488 
	C619.528381,663.245483 623.794861,661.011597 628.305847,659.514343 
	C630.545532,658.770874 633.409668,658.804138 635.683777,659.496338 
	C640.565063,660.981995 645.246765,663.123291 650.268555,664.672058 
	C650.684509,662.878784 650.976685,661.409729 650.978943,659.940308 
	C651.002930,644.344543 650.980835,628.748779 651.438354,613.091370 
	C668.618774,613.065613 685.332214,613.101440 702.138184,613.247742 
	C702.230713,613.358215 702.622742,613.424133 702.622742,613.424133 
	C702.622742,613.424133 702.946350,613.157654 703.217529,613.125000 
	C703.669495,613.113342 703.850281,613.134216 704.022095,613.612244 
	C704.009583,650.146240 703.989807,686.223083 704.047913,722.299866 
	C704.050964,724.198059 704.714844,726.095215 705.062988,727.927368 
	C705.054871,727.861816 705.185242,727.840942 705.130981,728.316833 
	C705.076111,733.165100 705.075500,737.537476 705.055237,742.383789 
	C705.023743,757.905212 705.011902,772.952576 705.000000,788.000000 
M686.539490,749.809143 
	C689.480042,740.539368 685.198303,734.295288 675.510986,734.073120 
	C667.682922,733.893677 659.843262,733.879333 652.016479,734.086304 
	C644.896179,734.274475 640.097351,738.914307 640.153503,745.065613 
	C640.208130,751.053711 644.786560,755.650085 651.651001,755.884827 
	C659.806580,756.163696 667.985168,756.139709 676.141418,755.871277 
	C680.171265,755.738647 684.100098,754.626770 686.539490,749.809143 
z"/>
<path fill="#fff" opacity="1.000000" stroke="none" 
	d="
M768.042480,272.108246 
	C775.640259,274.902130 783.770020,270.170044 786.714355,262.747253 
	C791.156738,251.547943 795.771606,240.417084 800.656616,229.128571 
	C801.000000,415.333344 801.000000,601.666687 801.000000,788.000000 
	C769.562012,788.000000 738.249695,788.000000 706.468079,787.531372 
	C706.020142,772.060303 706.041504,757.057861 706.527832,742.032715 
	C724.309692,742.005920 741.627136,742.073242 758.942322,741.902893 
	C760.990601,741.882812 763.650757,741.140381 764.953674,739.736450 
	C769.341919,735.008057 766.224426,728.910034 759.236206,727.351257 
	C765.520142,723.705750 768.042969,718.497986 768.041077,711.577332 
	C768.000488,565.087646 768.028137,418.597931 768.042480,272.108246 
M769.000000,694.499878 
	C769.000000,701.385620 769.000000,708.271301 769.000000,715.157043 
	C769.327942,715.152466 769.655945,715.147888 769.983887,715.143311 
	C769.983887,568.581543 769.983887,422.019836 769.983887,275.494415 
	C771.620667,275.127625 772.848633,274.852417 774.076599,274.577209 
	C774.045044,274.378174 774.013489,274.179138 773.981934,273.980072 
	C772.419983,274.085510 770.858032,274.190918 769.000000,274.316315 
	C769.000000,414.296753 769.000000,553.898376 769.000000,694.499878 
M707.000000,771.493896 
	C707.000000,776.383606 707.000000,781.273254 707.000000,786.162964 
	C707.217346,786.156006 707.434753,786.149109 707.652100,786.142151 
	C707.652100,772.449463 707.652100,758.756775 707.652100,745.064148 
	C707.434753,745.064575 707.217346,745.064941 707.000000,745.065369 
	C707.000000,753.542358 707.000000,762.019287 707.000000,771.493896 
z"/>
<path fill="#fff" opacity="1.000000" stroke="none" 
	d="
M1.000000,787.500000 
	C72.368721,786.986755 143.737442,786.973511 216.032410,786.962402 
	C288.160583,786.964539 359.362488,786.964539 431.081970,786.964539 
	C431.081970,771.625305 431.081970,756.844788 431.545319,742.038696 
	C473.671478,742.010376 515.334290,742.007690 557.184326,742.384399 
	C557.580444,744.538818 557.963806,746.313232 557.970703,748.089050 
	C558.022217,761.392578 557.999451,774.696289 558.000000,788.000000 
	C372.333344,788.000000 186.666672,788.000000 1.000000,787.500000 
M557.000000,754.550354 
	C557.000000,751.167114 557.000000,747.783875 557.000000,744.400696 
	C556.721130,744.434265 556.442322,744.467834 556.163452,744.501404 
	C556.163452,758.310852 556.163452,772.120300 556.163452,785.929749 
	C556.442322,785.926514 556.721130,785.923279 557.000000,785.920105 
	C557.000000,775.792419 557.000000,765.664795 557.000000,754.550354 
M433.000000,779.343262 
	C433.000000,767.835693 433.000000,756.328125 433.000000,744.820557 
	C432.760529,744.823853 432.521088,744.827087 432.281616,744.830322 
	C432.281616,758.604004 432.281616,772.377747 432.281616,786.151428 
	C432.521088,786.152466 432.760529,786.153503 433.000000,786.154541 
	C433.000000,784.198547 433.000000,782.242554 433.000000,779.343262 
z"/>
<path fill="#F7DCC7" opacity="1.000000" stroke="none" 
	d="
M558.250000,788.000000 
	C557.999451,774.696289 558.022217,761.392578 557.970703,748.089050 
	C557.963806,746.313232 557.580444,744.538818 557.496521,742.369629 
	C558.033997,741.925659 558.446472,741.875916 558.858887,741.826172 
	C558.906067,756.905029 558.953308,771.983826 559.000244,787.531372 
	C559.000000,788.000000 558.500000,788.000000 558.250000,788.000000 
z"/>
<path fill="#F9DFCA" opacity="1.000000" stroke="none" 
	d="
M706.062805,742.055481 
	C706.041504,757.057861 706.020142,772.060303 705.999390,787.531372 
	C706.000000,788.000000 705.500000,788.000000 705.250000,788.000000 
	C705.011902,772.952576 705.023743,757.905212 705.301331,742.424500 
	C705.567078,741.991211 706.062805,742.055481 706.062805,742.055481 
z"/>
<path fill="#EF4D70" opacity="1.000000" stroke="none" 
	d="
M767.755127,271.911804 
	C768.028137,418.597931 768.000488,565.087646 768.041077,711.577332 
	C768.042969,718.497986 765.520142,723.705750 758.781494,727.475159 
	C740.448120,727.816528 722.816650,727.828735 705.185242,727.840942 
	C705.185242,727.840942 705.054871,727.861816 705.088379,727.457886 
	C705.126282,690.761841 705.145508,654.469666 705.088318,618.177612 
	C705.085693,616.502930 704.399170,614.829224 704.031128,613.155090 
	C703.850281,613.134216 703.669495,613.113342 702.993042,613.088379 
	C702.497498,613.084290 702.045715,613.137329 702.045715,613.137329 
	C685.332214,613.101440 668.618774,613.065613 651.193665,613.046936 
	C650.482056,613.064087 649.985046,613.083191 649.531433,613.060059 
	C646.609497,612.954834 644.141235,612.872742 641.584106,612.552612 
	C641.418945,612.163574 641.342529,612.012451 641.397949,611.421631 
	C641.576355,610.151672 641.663757,609.321411 641.663818,608.491211 
	C641.671021,538.239502 641.674988,467.987854 641.650696,397.736176 
	C641.650146,396.090393 641.325806,394.444702 641.346069,392.765015 
	C641.539551,392.731018 641.823608,393.002594 642.118042,392.699341 
	C642.607788,391.265900 642.973145,390.135864 642.973999,389.005524 
	C643.003479,349.189728 643.014038,309.373901 642.939575,269.558228 
	C642.936768,268.057251 642.062134,266.557922 641.433716,264.924866 
	C641.155518,264.540619 641.024475,264.296265 640.920654,263.660889 
	C639.989014,254.775513 635.006836,249.130325 627.781738,244.730026 
	C627.055481,244.348755 626.521301,244.176010 625.644531,244.012833 
	C624.858215,243.929230 624.414612,243.836060 623.907654,243.487701 
	C623.206909,243.197632 622.569580,243.162750 621.469238,243.172043 
	C611.655212,243.267151 602.304138,243.318069 592.629395,243.321808 
	C591.875366,243.219986 591.444946,243.165329 590.705383,242.828186 
	C588.762573,242.362183 587.128967,242.018524 585.495239,242.018097 
	C496.405426,241.994461 407.315643,241.993729 318.225861,242.045334 
	C316.486084,242.046341 314.746735,242.696808 312.993164,243.233643 
	C312.979187,243.423004 312.934601,243.800156 312.476013,243.844666 
	C307.112274,243.751511 302.207062,243.613846 297.132111,243.275879 
	C296.544464,243.213074 296.126556,243.350571 295.275146,243.620911 
	C280.633820,243.822372 266.425995,243.919083 252.218155,243.919586 
	C250.664612,243.919647 249.111038,243.366150 247.028824,243.069000 
	C246.147736,243.068771 245.795288,243.068970 245.179031,243.368469 
	C238.440109,243.783096 231.965408,243.941879 225.489807,244.004227 
	C213.891510,244.115860 205.735245,250.668365 203.057709,262.274902 
	C202.984116,262.506714 203.021637,262.991699 202.909988,263.267517 
	C202.743179,263.933319 202.688019,264.323242 202.479752,265.115173 
	C202.288132,295.066711 202.266556,324.616364 202.203033,354.165894 
	C202.176636,366.445709 202.060608,378.725311 201.860352,391.109619 
	C201.565170,391.533142 201.652817,391.794861 202.136017,392.199158 
	C202.273758,392.398926 202.471695,392.842041 202.355743,393.307190 
	C202.205109,408.799957 202.170410,423.827576 201.661011,438.905701 
	C196.857315,438.973267 192.528305,438.999451 188.199280,439.005402 
	C180.841599,439.015503 180.838715,439.010162 180.838165,446.133698 
	C180.836624,466.780884 180.860474,487.428101 180.803085,508.075134 
	C180.797195,510.192596 180.311142,512.308716 179.578629,514.386108 
	C160.052811,514.532471 140.996246,514.718140 121.476761,514.877502 
	C108.911652,514.887817 96.809479,514.924438 84.359169,514.805420 
	C81.347229,514.376099 78.683426,514.102539 76.019608,513.828918 
	C75.994865,433.513214 75.970116,353.197510 75.862144,272.416382 
	C90.780418,263.432129 105.728653,254.817871 120.792137,246.410126 
	C213.140411,194.865494 305.514832,143.367676 397.880371,91.854019 
	C403.111786,88.936378 408.383057,86.087265 413.561646,83.078682 
	C419.339722,79.721832 424.788696,80.217682 430.540314,83.445175 
	C472.053650,106.740089 513.630981,129.920883 555.197876,153.120361 
	C625.538269,192.378998 695.885925,231.624542 766.227722,270.880615 
	C766.661316,271.122559 767.055298,271.435547 767.755127,271.911804 
M394.506470,160.902161 
	C388.548737,163.735199 386.005310,168.057220 387.145752,173.410233 
	C388.248657,178.586807 392.767426,181.898743 399.030396,181.917007 
	C414.161835,181.961105 429.293488,181.945526 444.424957,181.909073 
	C445.899139,181.905518 447.432037,181.792740 448.835571,181.381866 
	C453.721497,179.951553 456.417999,176.351273 456.626343,171.511536 
	C456.870300,165.845764 453.241211,162.451981 447.627075,159.718307 
	C446.844055,159.488159 446.061615,159.059448 445.277924,159.057129 
	C429.668243,159.011124 414.058258,158.982391 398.449036,159.073776 
	C397.310883,159.080429 396.178223,160.029999 394.506470,160.902161 
M201.451935,263.493378 
	C201.451935,263.493378 201.508911,263.464844 201.451935,263.493378 
M307.539215,242.506332 
	C307.539215,242.506332 307.484222,242.530121 307.539215,242.506332 
M301.493134,242.537476 
	C301.493134,242.537476 301.468506,242.482880 301.493134,242.537476 
z"/>
<path fill="#F9CAAA" opacity="1.000000" stroke="none" 
	d="
M121.939697,514.903870 
	C140.996246,514.718140 160.052811,514.532471 179.765854,514.719238 
	C180.614258,516.560913 180.972656,518.030090 180.973587,519.499451 
	C180.993469,550.988281 180.973282,582.477112 180.960876,613.965942 
	C165.605026,613.982300 150.249146,613.998657 133.957092,614.005127 
	C116.081627,614.052368 99.142365,614.109375 82.203102,614.166443 
	C65.317703,614.109802 48.432243,614.064636 31.546978,613.981201 
	C29.574884,613.971436 27.603834,613.750671 25.303518,613.369995 
	C25.316483,611.253784 25.952024,609.395935 25.956026,607.536743 
	C26.018745,578.394531 26.000017,549.252075 26.000032,520.109680 
	C26.000034,518.302734 26.000034,516.495728 26.000034,513.940918 
	C42.584023,513.940918 58.832542,513.940918 75.550339,513.884888 
	C78.683426,514.102539 81.347229,514.376099 84.382050,515.277771 
	C84.753067,525.147888 84.753067,534.389893 84.753067,544.874329 
	C97.486031,539.710510 109.428444,539.722717 121.939697,544.916321 
	C121.939697,534.078003 121.939697,524.490906 121.939697,514.903870 
M132.542877,600.933533 
	C139.650558,600.590454 146.839554,600.783020 153.838058,599.720703 
	C158.708618,598.981445 162.142258,593.240356 161.730774,588.892029 
	C161.218674,583.480530 157.183105,579.251038 151.516922,579.096497 
	C141.878326,578.833618 132.223312,578.850891 122.583420,579.086853 
	C117.359131,579.214722 113.627922,583.132874 113.031036,588.226624 
	C112.411934,593.510132 114.835678,598.240906 119.785957,599.612488 
	C123.544960,600.653931 127.625259,600.535583 132.542877,600.933533 
z"/>
<path fill="#FC9EA7" opacity="1.000000" stroke="none" 
	d="
M74.000000,416.000000 
	C74.000000,368.358307 74.000000,321.216614 74.000000,274.074921 
	C74.216644,274.074707 74.433281,274.074493 74.649925,274.074249 
	C74.649925,353.447815 74.649925,432.821381 74.649925,512.597717 
	C58.859810,512.597717 42.969341,512.597717 27.078871,512.597717 
	C27.073130,512.470642 27.067389,512.343628 27.061647,512.216553 
	C42.444729,512.216553 57.827812,512.216553 74.000000,512.216553 
	C74.000000,479.993011 74.000000,448.246490 74.000000,416.000000 
z"/>
<path fill="#F9CAAA" opacity="1.000000" stroke="none" 
	d="
M431.081970,742.064270 
	C431.081970,756.844788 431.081970,771.625305 431.081970,786.964539 
	C359.362488,786.964539 288.160583,786.964539 216.496063,786.900146 
	C216.012604,729.536255 215.991730,672.236755 216.445679,614.468689 
	C243.636169,614.012695 270.351837,614.025330 297.039856,614.502441 
	C297.012177,631.727844 297.012177,648.488831 297.012177,665.960571 
	C303.514313,664.062561 309.453186,662.591553 315.200348,660.574219 
	C320.456970,658.729065 325.384857,658.554565 330.704834,660.493835 
	C336.496429,662.605042 342.558289,663.974792 349.045502,665.822510 
	C349.045502,647.986755 349.045502,631.043701 349.508179,614.042175 
	C376.716370,613.977234 403.461884,613.970764 430.266357,614.432556 
	C430.379028,652.530273 430.432800,690.159668 430.390076,728.256226 
	C430.556396,733.170349 430.819183,737.617310 431.081970,742.064270 
M364.501099,733.942200 
	C360.009216,733.943359 355.457489,734.405518 351.040222,733.832031 
	C345.181519,733.071289 340.076416,739.695679 340.079834,744.450439 
	C340.083893,750.025146 345.134094,754.949951 351.161011,754.987549 
	C363.637970,755.065247 376.115967,755.059204 388.593079,754.992798 
	C394.993225,754.958679 399.839081,750.190735 399.870117,744.132507 
	C399.897797,738.738159 394.664337,734.008301 388.459045,733.958679 
	C380.806702,733.897461 373.153503,733.942688 364.501099,733.942200 
z"/>
<path fill="#EDBA94" opacity="1.000000" stroke="none" 
	d="
M297.067505,614.037964 
	C270.351837,614.025330 243.636169,614.012695 216.449432,614.000000 
	C204.621124,613.995605 193.263870,613.991272 181.433746,613.976440 
	C180.973282,582.477112 180.993469,550.988281 180.973587,519.499451 
	C180.972656,518.030090 180.614258,516.560913 180.235123,514.758545 
	C180.311142,512.308716 180.797195,510.192596 180.803085,508.075134 
	C180.860474,487.428101 180.836624,466.780884 180.838165,446.133698 
	C180.838715,439.010162 180.841599,439.015503 188.199280,439.005402 
	C192.528305,438.999451 196.857315,438.973267 202.115417,438.960754 
	C214.073074,439.038239 225.101639,439.111176 236.092712,439.637665 
	C236.055222,456.958984 236.055222,473.826752 236.055222,491.698029 
	C241.260391,489.487122 245.582932,487.890686 249.674911,485.835266 
	C252.807495,484.261749 255.444611,484.401520 258.541534,485.998444 
	C262.559906,488.070465 266.872162,489.572693 271.822601,491.639435 
	C271.822601,473.381989 271.822601,456.282928 272.298676,439.121460 
	C290.537262,439.094940 308.299805,439.130859 326.172516,439.332947 
	C326.460144,439.703644 326.673004,439.859924 326.982849,440.435181 
	C327.061768,485.641144 327.092438,530.379822 327.087646,575.118530 
	C327.086334,587.422913 326.979187,599.727295 326.802795,612.124023 
	C326.513367,612.506409 326.579193,612.751953 326.935547,613.189636 
	C326.988586,613.426270 327.013184,613.910645 326.542999,613.935486 
	C316.404388,613.986206 306.735931,614.012085 297.067505,614.037964 
M266.826874,562.121094 
	C262.923096,565.353882 260.838684,569.241089 262.740173,574.362122 
	C264.643585,579.488342 268.397095,581.941772 274.339294,581.985840 
	C281.818085,582.041321 289.297607,582.020569 296.776703,581.994141 
	C304.668610,581.966309 309.597321,577.918457 309.881653,571.290100 
	C310.147278,565.097839 304.307220,560.089050 296.593933,560.019775 
	C289.281555,559.954102 281.963837,559.864136 274.657593,560.085815 
	C272.264435,560.158386 269.899902,561.174255 266.826874,562.121094 
z"/>
<path fill="#FD6930" opacity="1.000000" stroke="none" 
	d="
M82.179855,614.621704 
	C99.142365,614.109375 116.081627,614.052368 133.485413,614.016113 
	C133.949921,630.923218 133.949921,647.809448 133.949921,665.580017 
	C126.070930,663.286438 118.996086,661.084717 111.831589,659.229248 
	C109.723763,658.683350 107.236107,658.638489 105.139282,659.189270 
	C97.643723,661.158325 90.241249,663.481689 82.156616,665.861450 
	C82.156616,648.541870 82.156616,631.809448 82.179855,614.621704 
z"/>
<path fill="#E5A87F" opacity="1.000000" stroke="none" 
	d="
M181.754730,737.303711 
	C187.018692,746.084717 184.535233,753.684265 174.443115,754.385254 
	C161.251221,755.301453 147.897217,754.752502 134.670502,753.919800 
	C128.381409,753.523987 125.429039,748.765137 126.039238,743.245911 
	C126.668091,737.557983 130.799026,734.020081 136.943436,734.007385 
	C149.093430,733.982300 161.248169,733.821228 173.389954,734.137695 
	C176.114395,734.208679 178.793701,736.012390 181.754730,737.303711 
z"/>
<path fill="#7D717F" opacity="1.000000" stroke="none" 
	d="
M326.920593,612.031677 
	C326.979187,599.727295 327.086334,587.422913 327.087646,575.118530 
	C327.092438,530.379822 327.061768,485.641144 326.946442,440.210419 
	C326.667267,439.220490 326.405212,439.103271 326.062317,439.166809 
	C308.299805,439.130859 290.537262,439.094940 271.847168,439.073669 
	C259.323151,439.120300 247.726669,439.152222 236.130203,439.184143 
	C225.101639,439.111176 214.073074,439.038239 202.590118,438.910248 
	C202.170410,423.827576 202.205109,408.799957 202.504364,393.315460 
	C202.768936,392.858582 203.018402,393.024200 203.116440,393.150635 
	C203.214478,393.277100 203.643417,393.362152 203.643417,393.362152 
	C203.643417,393.362152 204.003143,393.065674 203.962097,392.985046 
	C203.921036,392.904388 203.911728,392.723663 204.381165,392.792358 
	C207.181747,392.884125 209.512909,392.927277 211.844070,392.927338 
	C352.073395,392.930542 492.302704,392.929291 632.532043,392.937500 
	C635.027222,392.937653 637.522461,393.047424 640.009338,393.333679 
	C640.001038,393.561310 639.997559,394.017151 639.998413,394.484741 
	C639.999512,465.250946 639.989319,535.549561 640.053101,605.848145 
	C640.054932,607.852905 640.844116,609.856995 641.266174,611.861389 
	C641.342529,612.012451 641.418945,612.163574 641.148376,612.615601 
	C631.919006,612.999634 623.036621,613.082825 614.154236,613.166016 
	C595.760193,613.218323 577.366211,613.270630 558.330811,613.859253 
	C557.458923,616.178772 557.028809,617.961792 557.027100,619.745239 
	C556.992615,655.792053 557.007324,691.838806 556.545776,727.942993 
	C514.715698,727.962891 473.352051,727.925354 431.993042,727.427612 
	C431.999115,691.193970 432.027985,655.420471 431.925598,619.647278 
	C431.920166,617.751343 430.805603,615.858521 430.207428,613.964294 
	C403.461884,613.970764 376.716370,613.977234 349.038391,614.009705 
	C341.075012,613.993958 334.044098,613.952332 327.013184,613.910645 
	C327.013184,613.910645 326.988586,613.426270 326.977997,612.960693 
	C326.967407,612.495178 326.920593,612.031677 326.920593,612.031677 
z"/>
<path fill="#AFCCD3" opacity="1.000000" stroke="none" 
	d="
M431.988403,727.887817 
	C473.352051,727.925354 514.715698,727.962891 556.815918,727.971436 
	C557.911499,727.913208 558.270508,727.883911 558.629517,727.854614 
	C558.731750,732.213440 558.833984,736.572205 558.897583,741.378601 
	C558.446472,741.875916 558.033997,741.925659 557.309326,741.990234 
	C515.334290,742.007690 473.671478,742.010376 431.545319,742.038696 
	C430.819183,737.617310 430.556396,733.170349 430.638062,728.289307 
	C431.317780,727.866089 431.653107,727.876953 431.988403,727.887817 
z"/>
<path fill="#FD6931" opacity="1.000000" stroke="none" 
	d="
M614.148499,613.621826 
	C623.036621,613.082825 631.919006,612.999634 641.237183,612.853516 
	C644.141235,612.872742 646.609497,612.954834 649.509583,613.519958 
	C649.964294,631.000671 649.987244,647.998352 650.010254,664.996094 
	C645.246765,663.123291 640.565063,660.981995 635.683777,659.496338 
	C633.409668,658.804138 630.545532,658.770874 628.305847,659.514343 
	C623.794861,661.011597 619.528381,663.245483 614.142761,665.625488 
	C614.142761,647.838806 614.142761,630.958191 614.148499,613.621826 
z"/>
<path fill="#E5A87F" opacity="1.000000" stroke="none" 
	d="
M686.369873,750.154663 
	C684.100098,754.626770 680.171265,755.738647 676.141418,755.871277 
	C667.985168,756.139709 659.806580,756.163696 651.651001,755.884827 
	C644.786560,755.650085 640.208130,751.053711 640.153503,745.065613 
	C640.097351,738.914307 644.896179,734.274475 652.016479,734.086304 
	C659.843262,733.879333 667.682922,733.893677 675.510986,734.073120 
	C685.198303,734.295288 689.480042,740.539368 686.369873,750.154663 
z"/>
<path fill="#AFCCD3" opacity="1.000000" stroke="none" 
	d="
M705.130981,728.316833 
	C722.816650,727.828735 740.448120,727.816528 758.534180,727.680359 
	C766.224426,728.910034 769.341919,735.008057 764.953674,739.736450 
	C763.650757,741.140381 760.990601,741.882812 758.942322,741.902893 
	C741.627136,742.073242 724.309692,742.005920 706.527832,742.032715 
	C706.062805,742.055481 705.567078,741.991211 705.320984,741.950562 
	C705.075500,737.537476 705.076111,733.165100 705.130981,728.316833 
z"/>
<path fill="#706779" opacity="1.000000" stroke="none" 
	d="
M558.676086,727.394226 
	C558.270508,727.883911 557.911499,727.913208 557.282288,727.914062 
	C557.007324,691.838806 556.992615,655.792053 557.027100,619.745239 
	C557.028809,617.961792 557.458923,616.178772 557.987671,614.052307 
	C558.444397,624.676514 558.716248,635.643738 558.739136,646.611450 
	C558.795044,673.385437 558.735596,700.159668 558.676086,727.394226 
z"/>
<path fill="#F9DCB9" opacity="1.000000" stroke="none" 
	d="
M704.022095,613.612244 
	C704.399170,614.829224 705.085693,616.502930 705.088318,618.177612 
	C705.145508,654.469666 705.126282,690.761841 705.096436,727.523438 
	C704.714844,726.095215 704.050964,724.198059 704.047913,722.299866 
	C703.989807,686.223083 704.009583,650.146240 704.022095,613.612244 
z"/>
<path fill="#F9DCB9" opacity="1.000000" stroke="none" 
	d="
M650.268555,664.671997 
	C649.987244,647.998352 649.964294,631.000671 649.963196,613.543091 
	C649.985046,613.083191 650.482056,613.064087 650.726746,613.108521 
	C650.980835,628.748779 651.002930,644.344543 650.978943,659.940308 
	C650.976685,661.409729 650.684509,662.878784 650.268555,664.671997 
z"/>
<path fill="#FED8B1" opacity="1.000000" stroke="none" 
	d="
M702.138184,613.247803 
	C702.045715,613.137329 702.497498,613.084290 702.721924,613.120972 
	C702.946350,613.157654 702.622742,613.424133 702.622742,613.424133 
	C702.622742,613.424133 702.230713,613.358215 702.138184,613.247803 
z"/>
<path fill="#FC9EA7" opacity="1.000000" stroke="none" 
	d="
M769.000000,693.999878 
	C769.000000,553.898376 769.000000,414.296753 769.000000,274.316315 
	C770.858032,274.190918 772.419983,274.085510 773.981934,273.980072 
	C774.013489,274.179138 774.045044,274.378174 774.076599,274.577209 
	C772.848633,274.852417 771.620667,275.127625 769.983887,275.494415 
	C769.983887,422.019836 769.983887,568.581543 769.983887,715.143311 
	C769.655945,715.147888 769.327942,715.152466 769.000000,715.157043 
	C769.000000,708.271301 769.000000,701.385620 769.000000,693.999878 
z"/>
<path fill="#FC9EA7" opacity="1.000000" stroke="none" 
	d="
M707.000000,770.995117 
	C707.000000,762.019287 707.000000,753.542358 707.000000,745.065369 
	C707.217346,745.064941 707.434753,745.064575 707.652100,745.064148 
	C707.652100,758.756775 707.652100,772.449463 707.652100,786.142151 
	C707.434753,786.149109 707.217346,786.156006 707.000000,786.162964 
	C707.000000,781.273254 707.000000,776.383606 707.000000,770.995117 
z"/>
<path fill="#FC9EA7" opacity="1.000000" stroke="none" 
	d="
M557.000000,755.043701 
	C557.000000,765.664795 557.000000,775.792419 557.000000,785.920105 
	C556.721130,785.923279 556.442322,785.926514 556.163452,785.929749 
	C556.163452,772.120300 556.163452,758.310852 556.163452,744.501404 
	C556.442322,744.467834 556.721130,744.434265 557.000000,744.400696 
	C557.000000,747.783875 557.000000,751.167114 557.000000,755.043701 
z"/>
<path fill="#FC9EA7" opacity="1.000000" stroke="none" 
	d="
M433.000000,779.814941 
	C433.000000,782.242554 433.000000,784.198547 433.000000,786.154541 
	C432.760529,786.153503 432.521088,786.152466 432.281616,786.151428 
	C432.281616,772.377747 432.281616,758.604004 432.281616,744.830322 
	C432.521088,744.827087 432.760529,744.823853 433.000000,744.820557 
	C433.000000,756.328125 433.000000,767.835693 433.000000,779.814941 
z"/>
<path fill="#AFCCD3" opacity="1.000000" stroke="none" 
	d="
M640.017639,393.106018 
	C637.522461,393.047424 635.027222,392.937653 632.532043,392.937500 
	C492.302704,392.929291 352.073395,392.930542 211.844070,392.927338 
	C209.512909,392.927277 207.181747,392.884125 204.404907,392.344238 
	C203.972321,351.148712 204.001831,310.470062 203.940643,269.791534 
	C203.938095,268.098114 203.088074,266.405945 202.632874,264.713196 
	C202.688019,264.323242 202.743179,263.933319 203.036499,263.177368 
	C203.482590,262.528137 203.434799,262.272003 203.131287,262.043060 
	C205.735245,250.668365 213.891510,244.115860 225.489807,244.004227 
	C231.965408,243.941879 238.440109,243.783096 245.368500,243.664246 
	C246.400360,243.463608 246.978928,243.266510 247.557480,243.069412 
	C249.111038,243.366150 250.664612,243.919647 252.218155,243.919586 
	C266.425995,243.919083 280.633820,243.822372 295.675659,243.707428 
	C296.773712,243.599472 297.037811,243.537827 297.301880,243.476196 
	C302.207062,243.613846 307.112274,243.751511 312.945129,243.913361 
	C329.919952,243.846085 345.967102,243.754623 362.481262,243.679779 
	C371.400909,243.704102 379.853607,243.697617 388.306244,243.722412 
	C406.854462,243.776825 425.402618,243.847061 444.269257,244.187180 
	C445.722015,244.642227 446.856201,244.976608 447.990601,244.977249 
	C494.890594,245.003708 541.790588,245.014557 588.690430,244.931976 
	C590.112244,244.929474 591.532166,243.912811 592.953003,243.368988 
	C602.304138,243.318069 611.655212,243.267151 621.695068,243.323578 
	C622.912842,243.534927 623.441895,243.638916 623.971008,243.742905 
	C624.414612,243.836060 624.858215,243.929230 625.851074,244.208466 
	C626.924866,244.575882 627.449341,244.757217 627.973877,244.938553 
	C635.006836,249.130325 639.989014,254.775513 640.683105,263.992493 
	C640.271240,265.700684 640.020142,266.679382 640.019653,267.658173 
	C639.999329,307.713867 639.990234,347.769592 640.042114,387.825226 
	C640.044189,389.422485 640.651062,391.018951 640.972961,392.733063 
	C640.969727,392.850311 640.948608,393.083954 640.715332,393.064697 
	C640.481995,393.045471 640.017639,393.106018 640.017639,393.106018 
M376.500000,357.933746 
	C331.525604,357.933777 286.551239,357.933624 241.576859,357.934662 
	C240.077759,357.934692 238.356827,357.480560 237.131210,358.062958 
	C235.261459,358.951385 232.510681,360.436523 232.362915,361.894257 
	C232.166504,363.831696 233.644272,366.579132 235.278427,367.870239 
	C236.726196,369.014038 239.371368,368.901398 241.488083,368.902130 
	C361.752899,368.943817 482.017761,368.939850 602.282593,368.937531 
	C608.738159,368.937408 611.660767,367.215210 611.839294,363.345520 
	C612.005493,359.742737 608.856079,357.935181 602.371948,357.934998 
	C527.414612,357.933105 452.457306,357.933594 376.500000,357.933746 
M544.500000,277.997070 
	C563.659241,277.997131 582.818420,277.999420 601.977661,277.993073 
	C603.475830,277.992584 605.395447,278.505157 606.384216,277.778778 
	C608.431335,276.274841 611.148560,274.265839 611.454468,272.154999 
	C611.869629,269.291138 609.493958,267.007996 606.017334,267.008453 
	C604.851135,267.008606 603.684937,266.999451 602.518738,266.999420 
	C482.231903,266.999146 361.945099,266.999207 241.658264,266.999725 
	C234.368561,266.999756 231.834778,268.486908 232.020584,272.649567 
	C232.190674,276.460602 234.938202,277.996307 241.616730,277.996368 
	C342.244476,277.997375 442.872253,277.997070 544.500000,277.997070 
M386.500000,338.068207 
	C458.303131,338.068146 530.106262,338.068604 601.909363,338.065125 
	C603.574707,338.065033 605.533752,338.567322 606.835144,337.867310 
	C608.685242,336.872192 610.875000,335.198364 611.356750,333.396667 
	C611.721741,332.031494 610.045471,329.215942 608.562561,328.472870 
	C606.325928,327.352203 603.466064,327.122742 600.870789,327.121490 
	C481.254547,327.063080 361.638306,327.065857 242.022095,327.107330 
	C239.737427,327.108124 236.963562,326.966248 235.306015,328.142456 
	C233.647629,329.319244 232.191864,332.154266 232.374344,334.100494 
	C232.510223,335.549805 235.252716,337.048645 237.114868,337.937988 
	C238.338409,338.522369 240.061371,338.067108 241.560684,338.067169 
	C289.540466,338.068359 337.520233,338.068298 386.500000,338.068207 
M606.836487,307.982971 
	C610.685913,306.944305 613.111511,304.216248 610.973145,300.766174 
	C609.693237,298.701019 605.843689,297.194153 603.146667,297.190308 
	C482.368652,297.018372 361.590424,297.036865 240.812210,297.082794 
	C238.869202,297.083527 236.525391,297.150299 235.094589,298.187592 
	C233.618881,299.257446 232.110413,301.668488 232.312134,303.280487 
	C232.518814,304.931976 234.565796,306.664185 236.218353,307.714050 
	C237.313797,308.410004 239.132599,308.026093 240.627563,308.026154 
	C362.405304,308.031097 484.183014,308.026245 606.836487,307.982971 
z"/>
<path fill="#F7F3F4" opacity="1.000000" stroke="none" 
	d="
M448.308868,160.316727 
	C453.241211,162.451981 456.870300,165.845764 456.626343,171.511536 
	C456.417999,176.351273 453.721497,179.951553 448.835571,181.381866 
	C447.432037,181.792740 445.899139,181.905518 444.424957,181.909073 
	C429.293488,181.945526 414.161835,181.961105 399.030396,181.917007 
	C392.767426,181.898743 388.248657,178.586807 387.145752,173.410233 
	C386.005310,168.057220 388.548737,163.735199 395.237732,160.646866 
	C413.415588,160.366623 430.862244,160.341675 448.308868,160.316727 
z"/>
<path fill="#9775C7" opacity="1.000000" stroke="none" 
	d="
M121.476761,514.877502 
	C121.939697,524.490906 121.939697,534.078003 121.939697,544.916321 
	C109.428444,539.722717 97.486031,539.710510 84.753067,544.874329 
	C84.753067,534.389893 84.753067,525.147888 84.730179,515.433472 
	C96.809479,514.924438 108.911652,514.887817 121.476761,514.877502 
z"/>
<path fill="#F54066" opacity="1.000000" stroke="none" 
	d="
M443.950806,243.910858 
	C425.402618,243.847061 406.854462,243.776825 388.306244,243.722412 
	C379.853607,243.697617 371.400909,243.704102 362.115540,243.500244 
	C345.190918,243.217468 329.099060,243.130875 313.007172,243.044266 
	C314.746735,242.696808 316.486084,242.046341 318.225861,242.045334 
	C407.315643,241.993729 496.405426,241.994461 585.495239,242.018097 
	C587.128967,242.018524 588.762573,242.362183 590.239746,242.897232 
	C543.528442,243.388657 496.973511,243.525589 450.418640,243.677917 
	C448.262451,243.684967 446.106750,243.830048 443.950806,243.910858 
z"/>
<path fill="#6D7581" opacity="1.000000" stroke="none" 
	d="
M641.397949,611.421631 
	C640.844116,609.856995 640.054932,607.852905 640.053101,605.848145 
	C639.989319,535.549561 639.999512,465.250946 640.193604,394.368286 
	C640.642456,393.604980 640.829346,393.371552 640.948608,393.083954 
	C640.948608,393.083954 640.969727,392.850311 641.019409,392.776428 
	C641.069092,392.702515 641.152466,392.798981 641.152466,392.798981 
	C641.325806,394.444702 641.650146,396.090393 641.650696,397.736176 
	C641.674988,467.987854 641.671021,538.239502 641.663818,608.491211 
	C641.663757,609.321411 641.576355,610.151672 641.397949,611.421631 
z"/>
<path fill="#A6DDE0" opacity="1.000000" stroke="none" 
	d="
M202.479752,265.115173 
	C203.088074,266.405945 203.938095,268.098114 203.940643,269.791534 
	C204.001831,310.470062 203.972321,351.148712 203.935486,392.275513 
	C203.911728,392.723663 203.921036,392.904388 203.717133,392.946564 
	C203.513229,392.988739 203.018402,393.024200 203.018402,393.024200 
	C203.018402,393.024200 202.768936,392.858582 202.620316,392.850311 
	C202.471695,392.842041 202.273758,392.398926 202.175873,391.950012 
	C202.047104,391.335724 202.016220,391.170380 201.985352,391.005005 
	C202.060608,378.725311 202.176636,366.445709 202.203033,354.165894 
	C202.266556,324.616364 202.288132,295.066711 202.479752,265.115173 
z"/>
<path fill="#A6DDE0" opacity="1.000000" stroke="none" 
	d="
M641.346008,392.765015 
	C641.152466,392.798981 641.069092,392.702515 641.022644,392.659180 
	C640.651062,391.018951 640.044189,389.422485 640.042114,387.825226 
	C639.990234,347.769592 639.999329,307.713867 640.019653,267.658173 
	C640.020142,266.679382 640.271240,265.700684 640.643066,264.390381 
	C641.024475,264.296265 641.155518,264.540619 641.426025,265.390015 
	C641.580383,299.531342 641.566345,333.074524 641.595276,366.617676 
	C641.602905,375.412720 641.743896,384.207611 641.823608,393.002594 
	C641.823608,393.002594 641.539551,392.731018 641.346008,392.765015 
z"/>
<path fill="#A7DBDF" opacity="1.000000" stroke="none" 
	d="
M444.269257,244.187195 
	C446.106750,243.830048 448.262451,243.684967 450.418640,243.677917 
	C496.973511,243.525589 543.528442,243.388657 590.548950,243.179718 
	C591.444946,243.165329 591.875366,243.219986 592.629395,243.321808 
	C591.532166,243.912811 590.112244,244.929474 588.690430,244.931976 
	C541.790588,245.014557 494.890594,245.003708 447.990601,244.977249 
	C446.856201,244.976608 445.722015,244.642227 444.269257,244.187195 
z"/>
<path fill="#F73C63" opacity="1.000000" stroke="none" 
	d="
M642.118042,392.699341 
	C641.743896,384.207611 641.602905,375.412720 641.595276,366.617676 
	C641.566345,333.074524 641.580383,299.531342 641.586060,265.523010 
	C642.062134,266.557922 642.936768,268.057251 642.939575,269.558228 
	C643.014038,309.373901 643.003479,349.189728 642.973999,389.005524 
	C642.973145,390.135864 642.607788,391.265900 642.118042,392.699341 
z"/>
<path fill="#4de762" opacity="1.000000" stroke="none" 
	d="
M447.967957,160.017517 
	C430.862244,160.341675 413.415588,160.366623 395.505981,160.466370 
	C396.178223,160.029999 397.310883,159.080429 398.449036,159.073776 
	C414.058258,158.982391 429.668243,159.011124 445.277924,159.057129 
	C446.061615,159.059448 446.844055,159.488159 447.967957,160.017517 
z"/>
<path fill="#DD6E8A" opacity="1.000000" stroke="none" 
	d="
M312.993164,243.233643 
	C329.099060,243.130875 345.190918,243.217468 361.648529,243.483612 
	C345.967102,243.754623 329.919952,243.846085 313.403687,243.868835 
	C312.934601,243.800156 312.979187,243.423004 312.993164,243.233643 
z"/>
<path fill="#F54066" opacity="1.000000" stroke="none" 
	d="
M623.907654,243.487701 
	C623.441895,243.638916 622.912842,243.534927 622.157959,243.279388 
	C622.569580,243.162750 623.206909,243.197632 623.907654,243.487701 
z"/>
<path fill="#F54066" opacity="1.000000" stroke="none" 
	d="
M627.781738,244.730026 
	C627.449341,244.757217 626.924866,244.575882 626.193726,244.198914 
	C626.521301,244.176010 627.055481,244.348755 627.781738,244.730026 
z"/>
<path fill="#F83A61" opacity="1.000000" stroke="none" 
	d="
M201.860352,391.109619 
	C202.016220,391.170380 202.047104,391.335724 202.038116,391.750214 
	C201.652817,391.794861 201.565170,391.533142 201.860352,391.109619 
z"/>
<path fill="#F83A61" opacity="1.000000" stroke="none" 
	d="
M201.480423,263.479126 
	C201.508911,263.464844 201.451935,263.493378 201.480423,263.479126 
z"/>
<path fill="#A6DDE0" opacity="1.000000" stroke="none" 
	d="
M203.057709,262.274902 
	C203.434799,262.272003 203.482590,262.528137 203.148132,262.901550 
	C203.021637,262.991699 202.984116,262.506714 203.057709,262.274902 
z"/>
<path fill="#F54066" opacity="1.000000" stroke="none" 
	d="
M247.028824,243.069000 
	C246.978928,243.266510 246.400360,243.463608 245.632324,243.364944 
	C245.795288,243.068970 246.147736,243.068771 247.028824,243.069000 
z"/>
<path fill="#F54066" opacity="1.000000" stroke="none" 
	d="
M307.511719,242.518219 
	C307.484222,242.530121 307.539215,242.506332 307.511719,242.518219 
z"/>
<path fill="#F54066" opacity="1.000000" stroke="none" 
	d="
M301.480835,242.510178 
	C301.468506,242.482880 301.493134,242.537476 301.480835,242.510178 
z"/>
<path fill="#F54066" opacity="1.000000" stroke="none" 
	d="
M297.132111,243.275879 
	C297.037811,243.537827 296.773712,243.599472 296.109161,243.574585 
	C296.126556,243.350571 296.544464,243.213074 297.132111,243.275879 
z"/>
<path fill="#E5A87F" opacity="1.000000" stroke="none" 
	d="
M132.052734,600.933411 
	C127.625259,600.535583 123.544960,600.653931 119.785957,599.612488 
	C114.835678,598.240906 112.411934,593.510132 113.031036,588.226624 
	C113.627922,583.132874 117.359131,579.214722 122.583420,579.086853 
	C132.223312,578.850891 141.878326,578.833618 151.516922,579.096497 
	C157.183105,579.251038 161.218674,583.480530 161.730774,588.892029 
	C162.142258,593.240356 158.708618,598.981445 153.838058,599.720703 
	C146.839554,600.783020 139.650558,600.590454 132.052734,600.933411 
z"/>
<path fill="#9775C6" opacity="1.000000" stroke="none" 
	d="
M326.542999,613.935486 
	C334.044098,613.952332 341.075012,613.993958 348.575714,614.068115 
	C349.045502,631.043701 349.045502,647.986755 349.045502,665.822510 
	C342.558289,663.974792 336.496429,662.605042 330.704834,660.493835 
	C325.384857,658.554565 320.456970,658.729065 315.200348,660.574219 
	C309.453186,662.591553 303.514313,664.062561 297.012177,665.960571 
	C297.012177,648.488831 297.012177,631.727844 297.039856,614.502380 
	C306.735931,614.012085 316.404388,613.986206 326.542999,613.935486 
z"/>
<path fill="#E5A87F" opacity="1.000000" stroke="none" 
	d="
M365.000885,733.942078 
	C373.153503,733.942688 380.806702,733.897461 388.459045,733.958679 
	C394.664337,734.008301 399.897797,738.738159 399.870117,744.132507 
	C399.839081,750.190735 394.993225,754.958679 388.593079,754.992798 
	C376.115967,755.059204 363.637970,755.065247 351.161011,754.987549 
	C345.134094,754.949951 340.083893,750.025146 340.079834,744.450439 
	C340.076416,739.695679 345.181519,733.071289 351.040222,733.832031 
	C355.457489,734.405518 360.009216,733.943359 365.000885,733.942078 
z"/>
<path fill="#706779" opacity="1.000000" stroke="none" 
	d="
M431.993042,727.427673 
	C431.653107,727.876953 431.317780,727.866089 430.734497,727.822144 
	C430.432800,690.159668 430.379028,652.530273 430.266357,614.432556 
	C430.805603,615.858521 431.920166,617.751343 431.925598,619.647278 
	C432.027985,655.420471 431.999115,691.193970 431.993042,727.427673 
z"/>
<path fill="#FD6930" opacity="1.000000" stroke="none" 
	d="
M236.092712,439.637695 
	C247.726669,439.152222 259.323151,439.120300 271.371094,439.136139 
	C271.822601,456.282928 271.822601,473.381989 271.822601,491.639435 
	C266.872162,489.572693 262.559906,488.070465 258.541534,485.998444 
	C255.444611,484.401520 252.807495,484.261749 249.674911,485.835266 
	C245.582932,487.890686 241.260391,489.487122 236.055222,491.698029 
	C236.055222,473.826752 236.055222,456.958984 236.092712,439.637695 
z"/>
<path fill="#E5A87F" opacity="1.000000" stroke="none" 
	d="
M267.174591,561.939880 
	C269.899902,561.174255 272.264435,560.158386 274.657593,560.085815 
	C281.963837,559.864136 289.281555,559.954102 296.593933,560.019775 
	C304.307220,560.089050 310.147278,565.097839 309.881653,571.290100 
	C309.597321,577.918457 304.668610,581.966309 296.776703,581.994141 
	C289.297607,582.020569 281.818085,582.041321 274.339294,581.985840 
	C268.397095,581.941772 264.643585,579.488342 262.740173,574.362122 
	C260.838684,569.241089 262.923096,565.353882 267.174591,561.939880 
z"/>
<path fill="#FDC496" opacity="1.000000" stroke="none" 
	d="
M326.802795,612.124023 
	C326.920593,612.031677 326.967407,612.495178 326.924927,612.724121 
	C326.579193,612.751953 326.513367,612.506409 326.802795,612.124023 
z"/>
<path fill="#FDC496" opacity="1.000000" stroke="none" 
	d="
M326.172516,439.332947 
	C326.405212,439.103271 326.667267,439.220490 326.884888,439.743164 
	C326.673004,439.859924 326.460144,439.703644 326.172516,439.332947 
z"/>
<path fill="#756472" opacity="1.000000" stroke="none" 
	d="
M640.715332,393.064697 
	C640.829346,393.371552 640.642456,393.604980 640.192749,393.900696 
	C639.997559,394.017151 640.001038,393.561310 640.009338,393.333679 
	C640.017639,393.106018 640.481995,393.045471 640.715332,393.064697 
z"/>
<path fill="#756472" opacity="1.000000" stroke="none" 
	d="
M203.116440,393.150635 
	C203.018402,393.024200 203.513229,392.988739 203.758179,393.027222 
	C204.003143,393.065674 203.643417,393.362152 203.643417,393.362152 
	C203.643417,393.362152 203.214478,393.277100 203.116440,393.150635 
z"/>
<path fill="#93A3A5" opacity="1.000000" stroke="none" 
	d="
M377.000000,357.933594 
	C452.457306,357.933594 527.414612,357.933105 602.371948,357.934998 
	C608.856079,357.935181 612.005493,359.742737 611.839294,363.345520 
	C611.660767,367.215210 608.738159,368.937408 602.282593,368.937531 
	C482.017761,368.939850 361.752899,368.943817 241.488083,368.902130 
	C239.371368,368.901398 236.726196,369.014038 235.278427,367.870239 
	C233.644272,366.579132 232.166504,363.831696 232.362915,361.894257 
	C232.510681,360.436523 235.261459,358.951385 237.131210,358.062958 
	C238.356827,357.480560 240.077759,357.934692 241.576859,357.934662 
	C286.551239,357.933624 331.525604,357.933777 377.000000,357.933594 
z"/>
<path fill="#93A3A5" opacity="1.000000" stroke="none" 
	d="
M544.000000,277.997070 
	C442.872253,277.997070 342.244476,277.997375 241.616730,277.996368 
	C234.938202,277.996307 232.190674,276.460602 232.020584,272.649567 
	C231.834778,268.486908 234.368561,266.999756 241.658264,266.999725 
	C361.945099,266.999207 482.231903,266.999146 602.518738,266.999420 
	C603.684937,266.999451 604.851135,267.008606 606.017334,267.008453 
	C609.493958,267.007996 611.869629,269.291138 611.454468,272.154999 
	C611.148560,274.265839 608.431335,276.274841 606.384216,277.778778 
	C605.395447,278.505157 603.475830,277.992584 601.977661,277.993073 
	C582.818420,277.999420 563.659241,277.997131 544.000000,277.997070 
z"/>
<path fill="#93A3A6" opacity="1.000000" stroke="none" 
	d="
M386.000000,338.068329 
	C337.520233,338.068298 289.540466,338.068359 241.560684,338.067169 
	C240.061371,338.067108 238.338409,338.522369 237.114868,337.937988 
	C235.252716,337.048645 232.510223,335.549805 232.374344,334.100494 
	C232.191864,332.154266 233.647629,329.319244 235.306015,328.142456 
	C236.963562,326.966248 239.737427,327.108124 242.022095,327.107330 
	C361.638306,327.065857 481.254547,327.063080 600.870789,327.121490 
	C603.466064,327.122742 606.325928,327.352203 608.562561,328.472870 
	C610.045471,329.215942 611.721741,332.031494 611.356750,333.396667 
	C610.875000,335.198364 608.685242,336.872192 606.835144,337.867310 
	C605.533752,338.567322 603.574707,338.065033 601.909363,338.065125 
	C530.106262,338.068604 458.303131,338.068146 386.000000,338.068329 
z"/>
<path fill="#93A3A5" opacity="1.000000" stroke="none" 
	d="
M606.398621,308.002563 
	C484.183014,308.026245 362.405304,308.031097 240.627563,308.026154 
	C239.132599,308.026093 237.313797,308.410004 236.218353,307.714050 
	C234.565796,306.664185 232.518814,304.931976 232.312134,303.280487 
	C232.110413,301.668488 233.618881,299.257446 235.094589,298.187592 
	C236.525391,297.150299 238.869202,297.083527 240.812210,297.082794 
	C361.590424,297.036865 482.368652,297.018372 603.146667,297.190308 
	C605.843689,297.194153 609.693237,298.701019 610.973145,300.766174 
	C613.111511,304.216248 610.685913,306.944305 606.398621,308.002563 
z"/>
</svg>