<svg width="120" height="120" viewBox="0 0 120 120" fill="none" xmlns="http://www.w3.org/2000/svg">
<g clip-path="url(#clip0_13_36)">
<path d="M0 0C39.6 0 79.2 0 120 0C120 39.6 120 79.2 120 120C80.4 120 40.8 120 0 120C0 80.4 0 40.8 0 0Z" fill="#FDFDFD"/>
<path d="M66.6 10.8C69.9474 12.6947 69.9474 12.6947 70.8 14.4C70.824 15.5998 70.8261 16.8003 70.8 18C71.452 17.6856 71.452 17.6856 72.1172 17.3648C72.6973 17.0918 73.2773 16.8188 73.875 16.5375C74.7312 16.1303 74.7312 16.1303 75.6047 15.7148C82.6873 12.8947 91.7421 13.5788 98.6811 16.4213C102.156 17.9599 105.738 19.6774 108.6 22.2C108.973 23.4642 108.973 23.4642 109.2 24.6C107.341 25.606 105.477 26.6038 103.612 27.6C103.084 27.8862 102.555 28.1723 102.011 28.4672C101.502 28.7379 100.993 29.0086 100.47 29.2875C100.001 29.5389 99.5332 29.7902 99.0508 30.0492C97.8 30.6 97.8 30.6 96 30.6C96.2235 30.9117 96.447 31.2234 96.6773 31.5445C99.0247 35.0048 99.0247 35.0048 98.8875 37.2C98.6462 37.794 98.6462 37.794 98.4 38.4C89.9044 39.6357 81.0388 39.9194 73.2 36C72.903 38.97 72.903 38.97 72.6 42C73.2961 41.9722 73.9922 41.9443 74.7094 41.9156C82.646 41.6925 88.5537 42.7928 95.3062 47.2383C97.4694 48.5119 99.1918 48.6535 101.662 48.525C104.088 48.5051 105.498 48.7778 107.4 50.4C108.657 51.8246 109.183 52.7983 109.237 54.7102C108.949 58.3767 108.949 58.3767 107.737 59.8477C106.355 61.8426 106.119 63.9419 105.675 66.3C103.278 77.88 97.6541 87.3285 88.118 94.3945C74.9609 102.891 58.8031 105.846 43.3875 103.2C39.6989 102.325 36.1655 101.062 32.625 99.7125C32.1124 99.5211 31.5999 99.3296 31.0718 99.1324C28.6519 98.1545 26.9621 97.3921 25.4109 95.25C24.1367 93.3919 24.1367 93.3919 21.975 93.3117C21.2572 93.3697 20.5395 93.4277 19.8 93.4875C16.749 93.7143 15.0623 93.7097 12.6 91.8C10.997 89.3126 10.5147 87.5315 10.8 84.6C11.5169 83.2088 12.2393 81.9648 13.0875 80.6625C17.9165 72.715 18.0874 64.675 16.4742 55.7156C15.4611 49.3771 16.1769 42.0093 19.8 36.6C20.592 36.798 21.384 36.996 22.2 37.2C22.1146 38.0502 22.0266 38.9002 21.9375 39.75C21.8644 40.46 21.8644 40.46 21.7898 41.1844C21.6 42.6 21.6 42.6 21.2931 43.7341C20.9944 45.0244 20.9225 46.1481 20.9203 47.4703C20.9195 47.9336 20.9188 48.3969 20.918 48.8742C20.9214 49.5924 20.9214 49.5924 20.925 50.325C20.9227 50.7991 20.9204 51.2732 20.918 51.7617C20.9223 54.388 21.1571 56.8071 21.6 59.4C22.2536 68.464 21.143 75.8788 16.3031 83.7375C15.5182 85.3701 15.4136 86.4107 15.6 88.2C16.2822 89.0192 16.2822 89.0192 18.0961 88.8586C18.8688 88.8516 19.6414 88.8447 20.4375 88.8375C21.2117 88.8321 21.9859 88.8267 22.7836 88.8211C23.383 88.8141 23.9824 88.8072 24.6 88.8C24.8204 88.2594 24.8204 88.2594 25.0453 87.7078C25.938 86.1608 26.7629 85.6075 28.275 84.675C28.7576 84.3656 29.2402 84.0562 29.7375 83.7375C30.2201 83.4281 30.7027 83.1187 31.2 82.8C38.2848 78.0073 41.9742 72.127 44.9625 64.1625C48.6936 54.6206 55.8946 47.8374 65.1656 43.7016C66.2305 43.2975 67.3133 42.9409 68.4 42.6C68.8257 37.4674 67.6213 33.0461 66 28.2C65.7819 27.3937 65.7819 27.3937 65.5594 26.5711C64.4489 24.5661 63.0541 24.1377 60.975 23.25C60.2897 22.9499 59.6045 22.6498 58.8984 22.3406C52.8098 19.9653 45.0411 20.0299 38.925 22.2375C35.3334 23.8404 32.1838 26.0162 29.4 28.8C28.4003 28.8244 27.3997 28.8256 26.4 28.8C26.1715 26.1221 26.1715 26.1221 27.1547 24.7359C34.4475 18.4806 42.6322 15.5564 52.2 16.2C54.2263 16.5073 56.211 16.9072 58.2 17.4C58.3237 16.8679 58.4475 16.3357 58.575 15.7875C60.0787 12.1649 62.6138 10.0526 66.6 10.8Z" fill="#F2B754"/>
<path d="M66.6 10.8C69.9474 12.6947 69.9474 12.6947 70.8 14.4C70.824 15.5998 70.8261 16.8003 70.8 18C71.452 17.6856 71.452 17.6856 72.1172 17.3648C72.6973 17.0918 73.2773 16.8188 73.875 16.5375C74.7312 16.1303 74.7312 16.1303 75.6047 15.7148C82.6873 12.8947 91.7421 13.5788 98.6811 16.4213C102.156 17.9599 105.738 19.6774 108.6 22.2C108.973 23.4642 108.973 23.4642 109.2 24.6C107.341 25.606 105.477 26.6038 103.612 27.6C103.084 27.8862 102.555 28.1723 102.011 28.4672C101.502 28.7379 100.993 29.0086 100.47 29.2875C100.001 29.5389 99.5332 29.7902 99.0508 30.0492C97.8 30.6 97.8 30.6 96 30.6C96.2235 30.9117 96.447 31.2234 96.6773 31.5445C99.0247 35.0048 99.0247 35.0048 98.8875 37.2C98.6462 37.794 98.6462 37.794 98.4 38.4C89.9044 39.6357 81.0388 39.9194 73.2 36C72.903 38.97 72.903 38.97 72.6 42C73.2961 41.9722 73.9922 41.9443 74.7094 41.9156C82.646 41.6925 88.5537 42.7928 95.3062 47.2383C97.4694 48.5119 99.1918 48.6535 101.662 48.525C104.088 48.5051 105.498 48.7778 107.4 50.4C108.657 51.8246 109.183 52.7983 109.237 54.7102C108.949 58.3767 108.949 58.3767 107.737 59.8477C106.355 61.8426 106.119 63.9419 105.675 66.3C103.278 77.88 97.6541 87.3285 88.118 94.3945C74.9609 102.891 58.8031 105.846 43.3875 103.2C39.6989 102.325 36.1655 101.062 32.625 99.7125C32.1124 99.5211 31.5999 99.3296 31.0718 99.1324C28.6519 98.1545 26.9621 97.3921 25.4109 95.25C24.1367 93.3919 24.1367 93.3919 21.975 93.3117C21.2572 93.3697 20.5395 93.4277 19.8 93.4875C16.749 93.7143 15.0623 93.7097 12.6 91.8C10.997 89.3126 10.5147 87.5315 10.8 84.6C11.5169 83.2088 12.2393 81.9648 13.0875 80.6625C17.9165 72.715 18.0874 64.675 16.4742 55.7156C15.4611 49.3771 16.1769 42.0093 19.8 36.6C20.592 36.798 21.384 36.996 22.2 37.2C22.1146 38.0502 22.0266 38.9002 21.9375 39.75C21.8644 40.46 21.8644 40.46 21.7898 41.1844C21.6 42.6 21.6 42.6 21.2931 43.7341C20.9944 45.0244 20.9225 46.1481 20.9203 47.4703C20.9195 47.9336 20.9188 48.3969 20.918 48.8742C20.9214 49.5924 20.9214 49.5924 20.925 50.325C20.9227 50.7991 20.9204 51.2732 20.918 51.7617C20.9223 54.388 21.1571 56.8071 21.6 59.4C22.2536 68.464 21.143 75.8788 16.3031 83.7375C15.5182 85.3701 15.4136 86.4107 15.6 88.2C16.2822 89.0192 16.2822 89.0192 18.0961 88.8586C18.8688 88.8516 19.6414 88.8447 20.4375 88.8375C21.2117 88.8321 21.9859 88.8267 22.7836 88.8211C23.383 88.8141 23.9824 88.8072 24.6 88.8C24.8204 88.2594 24.8204 88.2594 25.0453 87.7078C25.938 86.1608 26.7629 85.6075 28.275 84.675C28.7576 84.3656 29.2402 84.0562 29.7375 83.7375C30.2201 83.4281 30.7027 83.1187 31.2 82.8C38.2848 78.0073 41.9742 72.127 44.9625 64.1625C48.6936 54.6206 55.8946 47.8374 65.1656 43.7016C66.2305 43.2975 67.3133 42.9409 68.4 42.6C68.8257 37.4674 67.6213 33.0461 66 28.2C65.7819 27.3937 65.7819 27.3937 65.5594 26.5711C64.4489 24.5661 63.0541 24.1377 60.975 23.25C60.2897 22.9499 59.6045 22.6498 58.8984 22.3406C52.8098 19.9653 45.0411 20.0299 38.925 22.2375C35.3334 23.8404 32.1838 26.0162 29.4 28.8C28.4003 28.8244 27.3997 28.8256 26.4 28.8C26.1715 26.1221 26.1715 26.1221 27.1547 24.7359C34.4475 18.4806 42.6322 15.5564 52.2 16.2C54.2263 16.5073 56.211 16.9072 58.2 17.4C58.3237 16.8679 58.4475 16.3357 58.575 15.7875C60.0787 12.1649 62.6138 10.0526 66.6 10.8ZM53.8875 56.5125C50.2672 60.7565 48.3259 65.7989 46.2375 70.9125C42.9389 78.6804 37.3442 83.9718 30.0398 88.0641C28.7267 88.7744 28.7267 88.7744 27.6 90C27.6916 91.7859 27.8557 92.6887 29.2008 93.9047C39.6948 100.619 54.5323 101.631 66.4125 99.2625C77.5178 96.7988 89.2696 91.201 95.557 81.3586C98.4426 76.571 101.025 71.5416 102 66C102.082 65.5537 102.164 65.1075 102.248 64.6477C102.649 60.2664 100.901 57.78 98.175 54.4617C93.111 49.1189 86.455 45.9463 79.0805 45.4781C68.7739 45.3396 60.9732 49.0624 53.8875 56.5125Z" fill="#080807"/>
<path d="M67.2 29.4C68.7082 33.7724 69.275 37.9972 69 42.6C68.3697 42.8978 67.7393 43.1955 67.0899 43.5023C56.462 48.6073 48.5213 55.0407 44.3742 66.5344C44.1971 67.0758 44.02 67.6172 43.8375 68.175C41.7913 74.1316 37.4707 79.1285 32.4 82.8C32.004 82.8 31.608 82.8 31.2 82.8C31.207 82.0188 31.214 81.2377 31.2211 80.4328C31.2268 79.3969 31.2322 78.3609 31.2375 77.325C31.2426 76.8114 31.2476 76.2979 31.2528 75.7687C31.2633 73.0231 31.0641 70.5103 30.6 67.8C29.8724 56.8111 31.2737 47.5054 38.4188 38.6977C44.7913 31.8749 52.4288 28.9846 61.5375 28.3125C62.1707 28.2645 62.1707 28.2645 62.8166 28.2155C65.8516 28.0515 65.8516 28.0515 67.2 29.4Z" fill="#E4A946"/>
<path d="M94.2 51C94.6517 51.3094 95.1034 51.6188 95.5687 51.9375C95.909 52.2221 96.2494 52.5068 96.6 52.8C96.6 53.196 96.6 53.592 96.6 54C96.2015 53.9874 95.8029 53.9749 95.3924 53.9619C83.0851 53.6247 74.063 54.9379 64.6969 63.6187C61.0395 67.5574 59.0196 72.1813 57.0375 77.1C54.0707 84.4115 50.3618 89.669 43.8 94.2C43.3336 94.531 42.8672 94.8621 42.3867 95.2031C40.1837 96.6137 38.5918 97.5064 35.9625 96.9375C34.7929 96.5273 34.7929 96.5273 33.6 96C33.163 95.8074 32.726 95.6148 32.2758 95.4164C30.4537 94.553 29.0347 93.8347 27.6 92.4C27.6726 90.9352 27.6726 90.9352 28.2 89.4C29.2711 88.4461 29.2711 88.4461 30.6375 87.6375C31.1263 87.3328 31.6151 87.028 32.1187 86.7141C32.6075 86.4124 33.0964 86.1108 33.6 85.8C41.2916 80.6627 45.443 73.8422 48.5625 65.2875C51.9873 56.4497 59.2753 50.7386 67.65 46.95C76.6266 43.4974 86.5197 45.6572 94.2 51Z" fill="#FCFCFB"/>
<path d="M102.6 22.8C102.6 23.196 102.6 23.592 102.6 24C101.677 24.4781 100.751 24.9523 99.8249 25.425C99.3098 25.6895 98.7947 25.954 98.264 26.2266C92.1927 29.0484 83.9001 29.5331 77.4187 27.6117C74.445 26.4156 72.3878 25.1593 70.2 22.8C71.522 22.1064 72.8472 21.4201 74.175 20.7375C74.5454 20.5422 74.9159 20.3469 75.2976 20.1457C84.6059 15.3936 93.8819 18.3827 102.6 22.8Z" fill="#F8F8F8"/>
<path d="M93.6 67.2C94.59 67.2 95.58 67.2 96.6 67.2C97.3594 69.515 96.8784 70.729 95.8208 72.9201C95.5012 73.5413 95.5012 73.5413 95.175 74.175C94.9568 74.6027 94.7387 75.0303 94.5139 75.4709C92.5167 79.2348 90.1286 82.2929 87 85.2C86.3932 85.7685 86.3932 85.7685 85.7742 86.3484C80.6976 90.6726 73.7994 93.9052 67.2 94.8C66.804 94.602 66.408 94.404 66 94.2C66.143 92.7703 66.143 92.7703 66.6 91.2C67.6758 90.5297 67.6758 90.5297 69.1125 90.075C79.5695 86.32 87.0244 81.1619 91.9898 70.9805C92.5536 69.7291 93.093 68.4753 93.6 67.2Z" fill="#090603"/>
<path d="M99 21C98.4 22.2 98.4 22.2 96.3375 23.175C89.6508 25.2579 81.2297 24.7905 75 21.6C74.802 21.204 74.604 20.808 74.4 20.4C82.7193 16.5731 90.8658 17.1592 99 21Z" fill="#A2D76A"/>
<path d="M70.2 27.6C70.8798 27.9689 70.8798 27.9689 71.5734 28.3453C76.8368 30.9216 81.5154 31.712 87.3729 31.945C87.9204 31.973 88.4679 32.0009 89.032 32.0297C89.5221 32.0445 90.0122 32.0593 90.5172 32.0745C92.2325 32.5098 92.6916 33.3295 93.5999 34.8C86.5232 37.1589 79.2858 34.6792 72.9023 31.6383C71.1711 30.4418 70.7655 29.5946 70.2 27.6Z" fill="#40B369"/>
<path d="M65.25 14.775C65.9182 14.8864 65.9182 14.8864 66.6 15C67.0125 16.35 67.0125 16.35 67.2 18C66.3375 19.3875 66.3375 19.3875 65.4 20.4C62.55 19.95 62.55 19.95 61.2 18.6C63.1938 15.0554 63.1938 15.0554 65.25 14.775Z" fill="#42B86C"/>
<path d="M58.8 92.4C59.79 92.598 60.78 92.796 61.8 93C61.602 93.99 61.404 94.98 61.2 96C60.21 95.802 59.22 95.604 58.2 95.4C58.398 94.41 58.596 93.42 58.8 92.4Z" fill="#0D0A04"/>
<path d="M22.8 30.6C24.0375 30.8625 24.0375 30.8625 25.2 31.2C25.5375 32.3625 25.5375 32.3625 25.8 33.6C25.2 34.2 25.2 34.2 23.6625 34.2375C22.9386 34.2189 22.9386 34.2189 22.2 34.2C22.1744 33.2003 22.1757 32.1997 22.2 31.2C22.398 31.002 22.596 30.804 22.8 30.6Z" fill="#111111"/>
<path d="M100.8 52.2C102.563 52.425 102.563 52.425 104.4 52.8C105.213 54.4253 105.039 55.8056 105 57.6C103.222 55.9152 101.733 54.4901 100.8 52.2Z" fill="#40B269"/>
</g>
<defs>
<clipPath id="clip0_13_36">
<rect width="120" height="120" fill="white"/>
</clipPath>
</defs>
</svg>
